<svg width="239" height="248" viewBox="0 0 239 248" fill="none" xmlns="http://www.w3.org/2000/svg">
<rect width="239" height="248" rx="12" fill="#1F1F1F"/>
<path d="M93.1591 121H91.0455C90.9205 120.392 90.7017 119.858 90.3892 119.398C90.0824 118.938 89.7074 118.551 89.2642 118.239C88.8267 117.92 88.3409 117.682 87.8068 117.523C87.2727 117.364 86.7159 117.284 86.1364 117.284C85.0795 117.284 84.1222 117.551 83.2642 118.085C82.4119 118.619 81.733 119.406 81.2273 120.446C80.7273 121.486 80.4773 122.761 80.4773 124.273C80.4773 125.784 80.7273 127.06 81.2273 128.099C81.733 129.139 82.4119 129.926 83.2642 130.46C84.1222 130.994 85.0795 131.261 86.1364 131.261C86.7159 131.261 87.2727 131.182 87.8068 131.023C88.3409 130.864 88.8267 130.628 89.2642 130.315C89.7074 129.997 90.0824 129.608 90.3892 129.148C90.7017 128.682 90.9205 128.148 91.0455 127.545H93.1591C93 128.437 92.7102 129.236 92.2898 129.94C91.8693 130.645 91.3466 131.244 90.7216 131.739C90.0966 132.227 89.3949 132.599 88.6165 132.855C87.8438 133.111 87.017 133.239 86.1364 133.239C84.6477 133.239 83.3239 132.875 82.1648 132.148C81.0057 131.42 80.0938 130.386 79.429 129.045C78.7642 127.705 78.4318 126.114 78.4318 124.273C78.4318 122.432 78.7642 120.841 79.429 119.5C80.0938 118.159 81.0057 117.125 82.1648 116.398C83.3239 115.67 84.6477 115.307 86.1364 115.307C87.017 115.307 87.8438 115.435 88.6165 115.69C89.3949 115.946 90.0966 116.321 90.7216 116.815C91.3466 117.304 91.8693 117.901 92.2898 118.605C92.7102 119.304 93 120.102 93.1591 121ZM97.2905 133H95.0746L101.484 115.545H103.665L110.075 133H107.859L102.643 118.307H102.506L97.2905 133ZM98.1087 126.182H107.04V128.057H98.1087V126.182ZM109.8 117.42V115.545H122.891V117.42H117.402V133H115.288V117.42H109.8ZM132.596 133V131.466L138.357 125.159C139.033 124.42 139.59 123.778 140.028 123.233C140.465 122.682 140.789 122.165 140.999 121.682C141.215 121.193 141.323 120.682 141.323 120.148C141.323 119.534 141.175 119.003 140.88 118.554C140.59 118.105 140.192 117.759 139.687 117.514C139.181 117.27 138.613 117.148 137.982 117.148C137.312 117.148 136.727 117.287 136.227 117.565C135.732 117.838 135.349 118.222 135.076 118.716C134.809 119.21 134.675 119.79 134.675 120.455H132.664C132.664 119.432 132.9 118.534 133.371 117.761C133.843 116.989 134.485 116.386 135.298 115.955C136.116 115.523 137.033 115.307 138.05 115.307C139.073 115.307 139.979 115.523 140.769 115.955C141.559 116.386 142.178 116.969 142.627 117.702C143.076 118.435 143.3 119.25 143.3 120.148C143.3 120.79 143.184 121.418 142.951 122.031C142.724 122.639 142.326 123.318 141.758 124.068C141.195 124.812 140.414 125.722 139.414 126.795L135.494 130.989V131.125H143.607V133H132.596ZM148.15 133H145.934L152.343 115.545H154.525L160.934 133H158.718L153.502 118.307H153.366L148.15 133ZM148.968 126.182H157.9V128.057H148.968V126.182Z" fill="white"/>
</svg>
