<svg width="239" height="296" viewBox="0 0 239 296" fill="none" xmlns="http://www.w3.org/2000/svg">
<path d="M239 284C239 290.627 233.627 296 227 296H132C125.373 296 120 290.627 120 284V160C120 153.373 114.627 148 108 148H12C5.37259 148 0 142.627 0 136V12C0 5.37258 5.37258 0 12 0H227C233.627 0 239 5.37258 239 12V284Z" fill="#1F1F1F"/>
<path d="M95.1591 65H93.0455C92.9205 64.392 92.7017 63.858 92.3892 63.3977C92.0824 62.9375 91.7074 62.5511 91.2642 62.2386C90.8267 61.9205 90.3409 61.6818 89.8068 61.5227C89.2727 61.3636 88.7159 61.2841 88.1364 61.2841C87.0795 61.2841 86.1222 61.5511 85.2642 62.0852C84.4119 62.6193 83.733 63.4062 83.2273 64.446C82.7273 65.4858 82.4773 66.7614 82.4773 68.2727C82.4773 69.7841 82.7273 71.0597 83.2273 72.0994C83.733 73.1392 84.4119 73.9261 85.2642 74.4602C86.1222 74.9943 87.0795 75.2614 88.1364 75.2614C88.7159 75.2614 89.2727 75.1818 89.8068 75.0227C90.3409 74.8636 90.8267 74.6278 91.2642 74.3153C91.7074 73.9972 92.0824 73.608 92.3892 73.1477C92.7017 72.6818 92.9205 72.1477 93.0455 71.5455H95.1591C95 72.4375 94.7102 73.2358 94.2898 73.9403C93.8693 74.6449 93.3466 75.2443 92.7216 75.7386C92.0966 76.2273 91.3949 76.5994 90.6165 76.8551C89.8438 77.1108 89.017 77.2386 88.1364 77.2386C86.6477 77.2386 85.3239 76.875 84.1648 76.1477C83.0057 75.4205 82.0938 74.3864 81.429 73.0455C80.7642 71.7045 80.4318 70.1136 80.4318 68.2727C80.4318 66.4318 80.7642 64.8409 81.429 63.5C82.0938 62.1591 83.0057 61.125 84.1648 60.3977C85.3239 59.6705 86.6477 59.3068 88.1364 59.3068C89.017 59.3068 89.8438 59.4347 90.6165 59.6903C91.3949 59.946 92.0966 60.321 92.7216 60.8153C93.3466 61.304 93.8693 61.9006 94.2898 62.6051C94.7102 63.304 95 64.1023 95.1591 65ZM99.2905 77H97.0746L103.484 59.5455H105.665L112.075 77H109.859L104.643 62.3068H104.506L99.2905 77ZM100.109 70.1818H109.04V72.0568H100.109V70.1818ZM111.8 61.4205V59.5455H124.891V61.4205H119.402V77H117.288V61.4205H111.8ZM140.732 59.5455V77H138.619V61.7614H138.516L134.255 64.5909V62.4432L138.619 59.5455H140.732ZM146.775 77H144.559L150.968 59.5455H153.15L159.559 77H157.343L152.127 62.3068H151.991L146.775 77ZM147.593 70.1818H156.525V72.0568H147.593V70.1818Z" fill="white"/>
</svg>
