<svg width="239" height="109" viewBox="0 0 239 109" fill="none" xmlns="http://www.w3.org/2000/svg">
<rect width="239" height="109" rx="12" fill="#1F1F1F"/>
<path d="M92.1591 51H90.0455C89.9205 50.392 89.7017 49.858 89.3892 49.3977C89.0824 48.9375 88.7074 48.5511 88.2642 48.2386C87.8267 47.9205 87.3409 47.6818 86.8068 47.5227C86.2727 47.3636 85.7159 47.2841 85.1364 47.2841C84.0795 47.2841 83.1222 47.5511 82.2642 48.0852C81.4119 48.6193 80.733 49.4062 80.2273 50.446C79.7273 51.4858 79.4773 52.7614 79.4773 54.2727C79.4773 55.7841 79.7273 57.0597 80.2273 58.0994C80.733 59.1392 81.4119 59.9261 82.2642 60.4602C83.1222 60.9943 84.0795 61.2614 85.1364 61.2614C85.7159 61.2614 86.2727 61.1818 86.8068 61.0227C87.3409 60.8636 87.8267 60.6278 88.2642 60.3153C88.7074 59.9972 89.0824 59.608 89.3892 59.1477C89.7017 58.6818 89.9205 58.1477 90.0455 57.5455H92.1591C92 58.4375 91.7102 59.2358 91.2898 59.9403C90.8693 60.6449 90.3466 61.2443 89.7216 61.7386C89.0966 62.2273 88.3949 62.5994 87.6165 62.8551C86.8438 63.1108 86.017 63.2386 85.1364 63.2386C83.6477 63.2386 82.3239 62.875 81.1648 62.1477C80.0057 61.4205 79.0938 60.3864 78.429 59.0455C77.7642 57.7045 77.4318 56.1136 77.4318 54.2727C77.4318 52.4318 77.7642 50.8409 78.429 49.5C79.0938 48.1591 80.0057 47.125 81.1648 46.3977C82.3239 45.6705 83.6477 45.3068 85.1364 45.3068C86.017 45.3068 86.8438 45.4347 87.6165 45.6903C88.3949 45.946 89.0966 46.321 89.7216 46.8153C90.3466 47.304 90.8693 47.9006 91.2898 48.6051C91.7102 49.304 92 50.1023 92.1591 51ZM96.2905 63H94.0746L100.484 45.5455H102.665L109.075 63H106.859L101.643 48.3068H101.506L96.2905 63ZM97.1087 56.1818H106.04V58.0568H97.1087V56.1818ZM108.8 47.4205V45.5455H121.891V47.4205H116.402V63H114.288V47.4205H108.8ZM137.494 63.2386C136.369 63.2386 135.366 63.0455 134.485 62.6591C133.61 62.2727 132.914 61.7358 132.397 61.0483C131.886 60.3551 131.607 59.5511 131.562 58.6364H133.71C133.755 59.1989 133.948 59.6847 134.289 60.0938C134.63 60.4972 135.076 60.8097 135.627 61.0312C136.178 61.2528 136.789 61.3636 137.46 61.3636C138.21 61.3636 138.874 61.233 139.454 60.9716C140.033 60.7102 140.488 60.3466 140.817 59.8807C141.147 59.4148 141.312 58.875 141.312 58.2614C141.312 57.6193 141.153 57.054 140.835 56.5653C140.516 56.071 140.05 55.6847 139.437 55.4062C138.823 55.1278 138.073 54.9886 137.187 54.9886H135.789V53.1136H137.187C137.88 53.1136 138.488 52.9886 139.011 52.7386C139.539 52.4886 139.951 52.1364 140.246 51.6818C140.548 51.2273 140.698 50.6932 140.698 50.0795C140.698 49.4886 140.567 48.9744 140.306 48.5369C140.045 48.0994 139.675 47.7585 139.198 47.5142C138.727 47.2699 138.17 47.1477 137.528 47.1477C136.925 47.1477 136.357 47.2585 135.823 47.4801C135.295 47.696 134.863 48.0114 134.528 48.4261C134.192 48.8352 134.011 49.3295 133.982 49.9091H131.937C131.971 48.9943 132.246 48.1932 132.763 47.5057C133.281 46.8125 133.957 46.2727 134.792 45.8864C135.633 45.5 136.556 45.3068 137.562 45.3068C138.641 45.3068 139.567 45.5256 140.34 45.9631C141.113 46.3949 141.707 46.9659 142.121 47.6761C142.536 48.3864 142.744 49.1534 142.744 49.9773C142.744 50.9602 142.485 51.7983 141.968 52.4915C141.457 53.1847 140.761 53.6648 139.88 53.9318V54.0682C140.982 54.25 141.843 54.7187 142.462 55.4744C143.082 56.2244 143.391 57.1534 143.391 58.2614C143.391 59.2102 143.133 60.0625 142.616 60.8182C142.104 61.5682 141.406 62.1591 140.519 62.5909C139.633 63.0227 138.624 63.2386 137.494 63.2386ZM161.229 51H159.116C158.991 50.392 158.772 49.858 158.46 49.3977C158.153 48.9375 157.778 48.5511 157.335 48.2386C156.897 47.9205 156.411 47.6818 155.877 47.5227C155.343 47.3636 154.786 47.2841 154.207 47.2841C153.15 47.2841 152.192 47.5511 151.335 48.0852C150.482 48.6193 149.803 49.4062 149.298 50.446C148.798 51.4858 148.548 52.7614 148.548 54.2727C148.548 55.7841 148.798 57.0597 149.298 58.0994C149.803 59.1392 150.482 59.9261 151.335 60.4602C152.192 60.9943 153.15 61.2614 154.207 61.2614C154.786 61.2614 155.343 61.1818 155.877 61.0227C156.411 60.8636 156.897 60.6278 157.335 60.3153C157.778 59.9972 158.153 59.608 158.46 59.1477C158.772 58.6818 158.991 58.1477 159.116 57.5455H161.229C161.07 58.4375 160.781 59.2358 160.36 59.9403C159.94 60.6449 159.417 61.2443 158.792 61.7386C158.167 62.2273 157.465 62.5994 156.687 62.8551C155.914 63.1108 155.087 63.2386 154.207 63.2386C152.718 63.2386 151.394 62.875 150.235 62.1477C149.076 61.4205 148.164 60.3864 147.499 59.0455C146.835 57.7045 146.502 56.1136 146.502 54.2727C146.502 52.4318 146.835 50.8409 147.499 49.5C148.164 48.1591 149.076 47.125 150.235 46.3977C151.394 45.6705 152.718 45.3068 154.207 45.3068C155.087 45.3068 155.914 45.4347 156.687 45.6903C157.465 45.946 158.167 46.321 158.792 46.8153C159.417 47.304 159.94 47.9006 160.36 48.6051C160.781 49.304 161.07 50.1023 161.229 51Z" fill="white"/>
</svg>
