<svg width="239" height="296" viewBox="0 0 239 296" fill="none" xmlns="http://www.w3.org/2000/svg">
<path d="M0 284C0 290.627 5.37258 296 12 296H107C113.627 296 119 290.627 119 284V160C119 153.373 124.373 148 131 148H227C233.627 148 239 142.627 239 136V12C239 5.37258 233.627 0 227 0H12C5.37259 0 0 5.37258 0 12V284Z" fill="#1F1F1F"/>
<path d="M95.1591 65H93.0455C92.9205 64.392 92.7017 63.858 92.3892 63.3977C92.0824 62.9375 91.7074 62.5511 91.2642 62.2386C90.8267 61.9205 90.3409 61.6818 89.8068 61.5227C89.2727 61.3636 88.7159 61.2841 88.1364 61.2841C87.0795 61.2841 86.1222 61.5511 85.2642 62.0852C84.4119 62.6193 83.733 63.4062 83.2273 64.446C82.7273 65.4858 82.4773 66.7614 82.4773 68.2727C82.4773 69.7841 82.7273 71.0597 83.2273 72.0994C83.733 73.1392 84.4119 73.9261 85.2642 74.4602C86.1222 74.9943 87.0795 75.2614 88.1364 75.2614C88.7159 75.2614 89.2727 75.1818 89.8068 75.0227C90.3409 74.8636 90.8267 74.6278 91.2642 74.3153C91.7074 73.9972 92.0824 73.608 92.3892 73.1477C92.7017 72.6818 92.9205 72.1477 93.0455 71.5455H95.1591C95 72.4375 94.7102 73.2358 94.2898 73.9403C93.8693 74.6449 93.3466 75.2443 92.7216 75.7386C92.0966 76.2273 91.3949 76.5994 90.6165 76.8551C89.8438 77.1108 89.017 77.2386 88.1364 77.2386C86.6477 77.2386 85.3239 76.875 84.1648 76.1477C83.0057 75.4205 82.0938 74.3864 81.429 73.0455C80.7642 71.7045 80.4318 70.1136 80.4318 68.2727C80.4318 66.4318 80.7642 64.8409 81.429 63.5C82.0938 62.1591 83.0057 61.125 84.1648 60.3977C85.3239 59.6705 86.6477 59.3068 88.1364 59.3068C89.017 59.3068 89.8438 59.4347 90.6165 59.6903C91.3949 59.946 92.0966 60.321 92.7216 60.8153C93.3466 61.304 93.8693 61.9006 94.2898 62.6051C94.7102 63.304 95 64.1023 95.1591 65ZM99.2905 77H97.0746L103.484 59.5455H105.665L112.075 77H109.859L104.643 62.3068H104.506L99.2905 77ZM100.109 70.1818H109.04V72.0568H100.109V70.1818ZM111.8 61.4205V59.5455H124.891V61.4205H119.402V77H117.288V61.4205H111.8ZM140.732 59.5455V77H138.619V61.7614H138.516L134.255 64.5909V62.4432L138.619 59.5455H140.732ZM146.059 77V59.5455H152.161C153.377 59.5455 154.38 59.7557 155.17 60.1761C155.96 60.5909 156.548 61.1506 156.934 61.8551C157.32 62.554 157.513 63.3295 157.513 64.1818C157.513 64.9318 157.38 65.5511 157.113 66.0398C156.852 66.5284 156.505 66.9148 156.073 67.1989C155.647 67.483 155.184 67.6932 154.684 67.8295V68C155.218 68.0341 155.755 68.2216 156.295 68.5625C156.835 68.9034 157.286 69.392 157.65 70.0284C158.013 70.6648 158.195 71.4432 158.195 72.3636C158.195 73.2386 157.996 74.0256 157.599 74.7244C157.201 75.4233 156.573 75.9773 155.715 76.3864C154.857 76.7955 153.741 77 152.366 77H146.059ZM148.173 75.125H152.366C153.746 75.125 154.727 74.858 155.306 74.3239C155.891 73.7841 156.184 73.1307 156.184 72.3636C156.184 71.7727 156.033 71.2273 155.732 70.7273C155.431 70.2216 155.002 69.8182 154.445 69.517C153.888 69.2102 153.229 69.0568 152.468 69.0568H148.173V75.125ZM148.173 67.2159H152.093C152.729 67.2159 153.303 67.0909 153.815 66.8409C154.332 66.5909 154.741 66.2386 155.042 65.7841C155.349 65.3295 155.502 64.7955 155.502 64.1818C155.502 63.4148 155.235 62.7642 154.701 62.2301C154.167 61.6903 153.32 61.4205 152.161 61.4205H148.173V67.2159Z" fill="white"/>
</svg>
