<svg width="239" height="306" viewBox="0 0 239 306" fill="none" xmlns="http://www.w3.org/2000/svg">
<path d="M239 39.4697C239 46.0971 233.627 51.4697 227 51.4697H168C161.373 51.4697 156 56.8423 156 63.4697V184.009C156 190.636 161.373 196.009 168 196.009H227C233.627 196.009 239 201.381 239 208.009V294C239 300.627 233.627 306 227 306H12C5.37259 306 0 300.627 0 294V208.009C0 201.381 5.37258 196.009 12 196.009H72C78.6274 196.009 84 190.636 84 184.009V63.4697C84 56.8423 78.6274 51.4697 72 51.4697H12C5.37258 51.4697 0 46.0971 0 39.4697V12C0 5.37258 5.37258 0 12 0H227C233.627 0 239 5.37258 239 12V39.4697Z" fill="#1F1F1F"/>
<path d="M97.6591 148.909C97.5568 148.045 97.142 147.375 96.4148 146.898C95.6875 146.42 94.7955 146.182 93.7386 146.182C92.9659 146.182 92.2898 146.307 91.7102 146.557C91.1364 146.807 90.6875 147.151 90.3636 147.588C90.0455 148.026 89.8864 148.523 89.8864 149.08C89.8864 149.545 89.9972 149.946 90.2188 150.281C90.446 150.611 90.7358 150.886 91.0881 151.108C91.4403 151.324 91.8097 151.503 92.196 151.645C92.5824 151.781 92.9375 151.892 93.2614 151.977L95.0341 152.455C95.4886 152.574 95.9943 152.739 96.5511 152.949C97.1136 153.159 97.6506 153.446 98.1619 153.81C98.679 154.168 99.1051 154.628 99.4403 155.19C99.7756 155.753 99.9432 156.443 99.9432 157.261C99.9432 158.205 99.696 159.057 99.2017 159.818C98.7131 160.58 97.9972 161.185 97.054 161.634C96.1165 162.082 94.9773 162.307 93.6364 162.307C92.3864 162.307 91.304 162.105 90.3892 161.702C89.4801 161.298 88.7642 160.736 88.2415 160.014C87.7244 159.293 87.4318 158.455 87.3636 157.5H89.5455C89.6023 158.159 89.8239 158.705 90.2102 159.136C90.6023 159.562 91.0966 159.881 91.6932 160.091C92.2955 160.295 92.9432 160.398 93.6364 160.398C94.4432 160.398 95.1676 160.267 95.8097 160.006C96.4517 159.739 96.9602 159.369 97.3352 158.898C97.7102 158.42 97.8977 157.864 97.8977 157.227C97.8977 156.648 97.7358 156.176 97.4119 155.812C97.0881 155.449 96.6619 155.153 96.1335 154.926C95.6051 154.699 95.0341 154.5 94.4205 154.33L92.2727 153.716C90.9091 153.324 89.8295 152.764 89.0341 152.037C88.2386 151.31 87.8409 150.358 87.8409 149.182C87.8409 148.205 88.1051 147.352 88.6335 146.625C89.1676 145.892 89.8835 145.324 90.7812 144.92C91.6847 144.511 92.6932 144.307 93.8068 144.307C94.9318 144.307 95.9318 144.509 96.8068 144.912C97.6818 145.31 98.375 145.855 98.8864 146.548C99.4034 147.241 99.6761 148.028 99.7045 148.909H97.6591ZM108.839 148.909V150.614H102.055V148.909H108.839ZM104.032 145.773H106.043V158.25C106.043 158.818 106.126 159.244 106.29 159.528C106.461 159.807 106.677 159.994 106.938 160.091C107.205 160.182 107.487 160.227 107.782 160.227C108.004 160.227 108.185 160.216 108.327 160.193C108.469 160.165 108.583 160.142 108.668 160.125L109.077 161.932C108.941 161.983 108.751 162.034 108.506 162.085C108.262 162.142 107.952 162.17 107.577 162.17C107.009 162.17 106.452 162.048 105.907 161.804C105.367 161.56 104.918 161.188 104.56 160.688C104.208 160.188 104.032 159.557 104.032 158.795V145.773ZM115.717 162.307C114.887 162.307 114.134 162.151 113.458 161.838C112.782 161.52 112.245 161.062 111.847 160.466C111.45 159.864 111.251 159.136 111.251 158.284C111.251 157.534 111.398 156.926 111.694 156.46C111.989 155.989 112.384 155.619 112.879 155.352C113.373 155.085 113.918 154.886 114.515 154.756C115.117 154.619 115.722 154.511 116.33 154.432C117.126 154.33 117.771 154.253 118.265 154.202C118.765 154.145 119.129 154.051 119.356 153.92C119.589 153.79 119.705 153.562 119.705 153.239V153.17C119.705 152.33 119.475 151.676 119.015 151.21C118.56 150.744 117.87 150.511 116.944 150.511C115.984 150.511 115.231 150.722 114.685 151.142C114.14 151.562 113.756 152.011 113.535 152.489L111.626 151.807C111.967 151.011 112.421 150.392 112.989 149.949C113.563 149.5 114.188 149.187 114.864 149.011C115.546 148.83 116.217 148.739 116.876 148.739C117.296 148.739 117.779 148.79 118.325 148.892C118.876 148.989 119.407 149.19 119.918 149.497C120.435 149.804 120.864 150.267 121.205 150.886C121.546 151.506 121.717 152.335 121.717 153.375V162H119.705V160.227H119.603C119.467 160.511 119.239 160.815 118.921 161.139C118.603 161.463 118.18 161.739 117.651 161.966C117.123 162.193 116.478 162.307 115.717 162.307ZM116.023 160.5C116.819 160.5 117.489 160.344 118.035 160.031C118.586 159.719 119.001 159.315 119.279 158.821C119.563 158.327 119.705 157.807 119.705 157.261V155.42C119.62 155.523 119.433 155.616 119.143 155.702C118.859 155.781 118.529 155.852 118.154 155.915C117.785 155.972 117.424 156.023 117.072 156.068C116.725 156.108 116.444 156.142 116.228 156.17C115.705 156.239 115.217 156.349 114.762 156.503C114.313 156.651 113.95 156.875 113.671 157.176C113.398 157.472 113.262 157.875 113.262 158.386C113.262 159.085 113.521 159.614 114.038 159.972C114.56 160.324 115.222 160.5 116.023 160.5ZM130.672 167.182C129.7 167.182 128.865 167.057 128.166 166.807C127.467 166.562 126.885 166.239 126.419 165.835C125.959 165.438 125.592 165.011 125.32 164.557L126.922 163.432C127.104 163.67 127.334 163.943 127.612 164.25C127.891 164.562 128.271 164.832 128.754 165.06C129.243 165.293 129.882 165.409 130.672 165.409C131.729 165.409 132.601 165.153 133.288 164.642C133.976 164.131 134.32 163.33 134.32 162.239V159.58H134.149C134.001 159.818 133.791 160.114 133.518 160.466C133.251 160.812 132.865 161.122 132.359 161.395C131.859 161.662 131.183 161.795 130.331 161.795C129.274 161.795 128.325 161.545 127.484 161.045C126.649 160.545 125.987 159.818 125.499 158.864C125.016 157.909 124.774 156.75 124.774 155.386C124.774 154.045 125.01 152.878 125.482 151.884C125.953 150.884 126.609 150.111 127.45 149.565C128.291 149.014 129.263 148.739 130.365 148.739C131.217 148.739 131.893 148.881 132.393 149.165C132.899 149.443 133.286 149.761 133.553 150.119C133.825 150.472 134.036 150.761 134.183 150.989H134.388V148.909H136.331V162.375C136.331 163.5 136.075 164.415 135.564 165.119C135.058 165.83 134.376 166.349 133.518 166.679C132.666 167.014 131.717 167.182 130.672 167.182ZM130.604 159.989C131.411 159.989 132.092 159.804 132.649 159.435C133.206 159.065 133.629 158.534 133.919 157.841C134.209 157.148 134.354 156.318 134.354 155.352C134.354 154.409 134.212 153.577 133.928 152.855C133.643 152.134 133.223 151.568 132.666 151.159C132.109 150.75 131.422 150.545 130.604 150.545C129.751 150.545 129.041 150.761 128.473 151.193C127.911 151.625 127.487 152.205 127.203 152.932C126.925 153.659 126.786 154.466 126.786 155.352C126.786 156.261 126.928 157.065 127.212 157.764C127.501 158.457 127.928 159.003 128.49 159.401C129.058 159.793 129.763 159.989 130.604 159.989ZM145.501 162.273C144.24 162.273 143.152 161.994 142.237 161.438C141.328 160.875 140.626 160.091 140.132 159.085C139.643 158.074 139.399 156.898 139.399 155.557C139.399 154.216 139.643 153.034 140.132 152.011C140.626 150.983 141.314 150.182 142.195 149.608C143.081 149.028 144.115 148.739 145.297 148.739C145.979 148.739 146.652 148.852 147.317 149.08C147.982 149.307 148.587 149.676 149.132 150.188C149.678 150.693 150.112 151.364 150.436 152.199C150.76 153.034 150.922 154.062 150.922 155.284V156.136H140.831V154.398H148.876C148.876 153.659 148.729 153 148.433 152.42C148.143 151.841 147.729 151.384 147.189 151.048C146.655 150.713 146.024 150.545 145.297 150.545C144.496 150.545 143.803 150.744 143.217 151.142C142.638 151.534 142.192 152.045 141.879 152.676C141.567 153.307 141.411 153.983 141.411 154.705V155.864C141.411 156.852 141.581 157.69 141.922 158.378C142.268 159.06 142.749 159.58 143.362 159.938C143.976 160.29 144.689 160.466 145.501 160.466C146.03 160.466 146.507 160.392 146.933 160.244C147.365 160.091 147.737 159.864 148.05 159.562C148.362 159.256 148.604 158.875 148.774 158.42L150.717 158.966C150.513 159.625 150.169 160.205 149.686 160.705C149.203 161.199 148.607 161.585 147.896 161.864C147.186 162.136 146.388 162.273 145.501 162.273Z" fill="white"/>
</svg>
