<svg width="239" height="248" viewBox="0 0 239 248" fill="none" xmlns="http://www.w3.org/2000/svg">
<rect width="239" height="248" rx="12" fill="#1F1F1F"/>
<path d="M94.1591 121H92.0455C91.9205 120.392 91.7017 119.858 91.3892 119.398C91.0824 118.938 90.7074 118.551 90.2642 118.239C89.8267 117.92 89.3409 117.682 88.8068 117.523C88.2727 117.364 87.7159 117.284 87.1364 117.284C86.0795 117.284 85.1222 117.551 84.2642 118.085C83.4119 118.619 82.733 119.406 82.2273 120.446C81.7273 121.486 81.4773 122.761 81.4773 124.273C81.4773 125.784 81.7273 127.06 82.2273 128.099C82.733 129.139 83.4119 129.926 84.2642 130.46C85.1222 130.994 86.0795 131.261 87.1364 131.261C87.7159 131.261 88.2727 131.182 88.8068 131.023C89.3409 130.864 89.8267 130.628 90.2642 130.315C90.7074 129.997 91.0824 129.608 91.3892 129.148C91.7017 128.682 91.9205 128.148 92.0455 127.545H94.1591C94 128.437 93.7102 129.236 93.2898 129.94C92.8693 130.645 92.3466 131.244 91.7216 131.739C91.0966 132.227 90.3949 132.599 89.6165 132.855C88.8438 133.111 88.017 133.239 87.1364 133.239C85.6477 133.239 84.3239 132.875 83.1648 132.148C82.0057 131.42 81.0938 130.386 80.429 129.045C79.7642 127.705 79.4318 126.114 79.4318 124.273C79.4318 122.432 79.7642 120.841 80.429 119.5C81.0938 118.159 82.0057 117.125 83.1648 116.398C84.3239 115.67 85.6477 115.307 87.1364 115.307C88.017 115.307 88.8438 115.435 89.6165 115.69C90.3949 115.946 91.0966 116.321 91.7216 116.815C92.3466 117.304 92.8693 117.901 93.2898 118.605C93.7102 119.304 94 120.102 94.1591 121ZM98.2905 133H96.0746L102.484 115.545H104.665L111.075 133H108.859L103.643 118.307H103.506L98.2905 133ZM99.1087 126.182H108.04V128.057H99.1087V126.182ZM110.8 117.42V115.545H123.891V117.42H118.402V133H116.288V117.42H110.8ZM133.596 133V131.466L139.357 125.159C140.033 124.42 140.59 123.778 141.028 123.233C141.465 122.682 141.789 122.165 141.999 121.682C142.215 121.193 142.323 120.682 142.323 120.148C142.323 119.534 142.175 119.003 141.88 118.554C141.59 118.105 141.192 117.759 140.687 117.514C140.181 117.27 139.613 117.148 138.982 117.148C138.312 117.148 137.727 117.287 137.227 117.565C136.732 117.838 136.349 118.222 136.076 118.716C135.809 119.21 135.675 119.79 135.675 120.455H133.664C133.664 119.432 133.9 118.534 134.371 117.761C134.843 116.989 135.485 116.386 136.298 115.955C137.116 115.523 138.033 115.307 139.05 115.307C140.073 115.307 140.979 115.523 141.769 115.955C142.559 116.386 143.178 116.969 143.627 117.702C144.076 118.435 144.3 119.25 144.3 120.148C144.3 120.79 144.184 121.418 143.951 122.031C143.724 122.639 143.326 123.318 142.758 124.068C142.195 124.812 141.414 125.722 140.414 126.795L136.494 130.989V131.125H144.607V133H133.596ZM148.434 133V115.545H154.536C155.752 115.545 156.755 115.756 157.545 116.176C158.335 116.591 158.923 117.151 159.309 117.855C159.695 118.554 159.888 119.33 159.888 120.182C159.888 120.932 159.755 121.551 159.488 122.04C159.227 122.528 158.88 122.915 158.448 123.199C158.022 123.483 157.559 123.693 157.059 123.83V124C157.593 124.034 158.13 124.222 158.67 124.562C159.21 124.903 159.661 125.392 160.025 126.028C160.388 126.665 160.57 127.443 160.57 128.364C160.57 129.239 160.371 130.026 159.974 130.724C159.576 131.423 158.948 131.977 158.09 132.386C157.232 132.795 156.116 133 154.741 133H148.434ZM150.548 131.125H154.741C156.121 131.125 157.102 130.858 157.681 130.324C158.266 129.784 158.559 129.131 158.559 128.364C158.559 127.773 158.408 127.227 158.107 126.727C157.806 126.222 157.377 125.818 156.82 125.517C156.263 125.21 155.604 125.057 154.843 125.057H150.548V131.125ZM150.548 123.216H154.468C155.104 123.216 155.678 123.091 156.19 122.841C156.707 122.591 157.116 122.239 157.417 121.784C157.724 121.33 157.877 120.795 157.877 120.182C157.877 119.415 157.61 118.764 157.076 118.23C156.542 117.69 155.695 117.42 154.536 117.42H150.548V123.216Z" fill="white"/>
</svg>
