<svg width="239" height="147" viewBox="0 0 239 147" fill="none" xmlns="http://www.w3.org/2000/svg">
<rect width="239" height="147" rx="12" fill="#1F1F1F"/>
<path d="M93.1591 70H91.0455C90.9205 69.392 90.7017 68.858 90.3892 68.3977C90.0824 67.9375 89.7074 67.5511 89.2642 67.2386C88.8267 66.9205 88.3409 66.6818 87.8068 66.5227C87.2727 66.3636 86.7159 66.2841 86.1364 66.2841C85.0795 66.2841 84.1222 66.5511 83.2642 67.0852C82.4119 67.6193 81.733 68.4062 81.2273 69.446C80.7273 70.4858 80.4773 71.7614 80.4773 73.2727C80.4773 74.7841 80.7273 76.0597 81.2273 77.0994C81.733 78.1392 82.4119 78.9261 83.2642 79.4602C84.1222 79.9943 85.0795 80.2614 86.1364 80.2614C86.7159 80.2614 87.2727 80.1818 87.8068 80.0227C88.3409 79.8636 88.8267 79.6278 89.2642 79.3153C89.7074 78.9972 90.0824 78.608 90.3892 78.1477C90.7017 77.6818 90.9205 77.1477 91.0455 76.5455H93.1591C93 77.4375 92.7102 78.2358 92.2898 78.9403C91.8693 79.6449 91.3466 80.2443 90.7216 80.7386C90.0966 81.2273 89.3949 81.5994 88.6165 81.8551C87.8438 82.1108 87.017 82.2386 86.1364 82.2386C84.6477 82.2386 83.3239 81.875 82.1648 81.1477C81.0057 80.4205 80.0938 79.3864 79.429 78.0455C78.7642 76.7045 78.4318 75.1136 78.4318 73.2727C78.4318 71.4318 78.7642 69.8409 79.429 68.5C80.0938 67.1591 81.0057 66.125 82.1648 65.3977C83.3239 64.6705 84.6477 64.3068 86.1364 64.3068C87.017 64.3068 87.8438 64.4347 88.6165 64.6903C89.3949 64.946 90.0966 65.321 90.7216 65.8153C91.3466 66.304 91.8693 66.9006 92.2898 67.6051C92.7102 68.304 93 69.1023 93.1591 70ZM97.2905 82H95.0746L101.484 64.5455H103.665L110.075 82H107.859L102.643 67.3068H102.506L97.2905 82ZM98.1087 75.1818H107.04V77.0568H98.1087V75.1818ZM109.8 66.4205V64.5455H122.891V66.4205H117.402V82H115.288V66.4205H109.8ZM138.732 64.5455V82H136.619V66.7614H136.516L132.255 69.5909V67.4432L136.619 64.5455H138.732ZM144.221 82.1364C143.8 82.1364 143.44 81.9858 143.138 81.6847C142.837 81.3835 142.687 81.0227 142.687 80.6023C142.687 80.1818 142.837 79.821 143.138 79.5199C143.44 79.2187 143.8 79.0682 144.221 79.0682C144.641 79.0682 145.002 79.2187 145.303 79.5199C145.604 79.821 145.755 80.1818 145.755 80.6023C145.755 80.8807 145.684 81.1364 145.542 81.3693C145.406 81.6023 145.221 81.7898 144.988 81.9318C144.761 82.0682 144.505 82.1364 144.221 82.1364ZM154.433 82.2386C153.433 82.2386 152.533 82.0398 151.732 81.642C150.93 81.2443 150.288 80.6989 149.805 80.0057C149.322 79.3125 149.058 78.5227 149.013 77.6364H151.058C151.138 78.4261 151.496 79.0795 152.132 79.5966C152.774 80.108 153.541 80.3636 154.433 80.3636C155.149 80.3636 155.786 80.196 156.342 79.8608C156.905 79.5256 157.345 79.0653 157.663 78.4801C157.987 77.8892 158.149 77.2216 158.149 76.4773C158.149 75.7159 157.982 75.0369 157.646 74.4403C157.317 73.8381 156.862 73.3636 156.283 73.017C155.703 72.6705 155.041 72.4943 154.297 72.4886C153.763 72.483 153.214 72.5653 152.652 72.7358C152.089 72.9006 151.626 73.1136 151.263 73.375L149.286 73.1364L150.342 64.5455H159.411V66.4205H152.115L151.501 71.5682H151.604C151.962 71.2841 152.411 71.0483 152.95 70.8608C153.49 70.6733 154.053 70.5795 154.638 70.5795C155.706 70.5795 156.658 70.8352 157.493 71.3466C158.334 71.8523 158.993 72.5455 159.47 73.4261C159.953 74.3068 160.195 75.3125 160.195 76.4432C160.195 77.5568 159.945 78.5511 159.445 79.4261C158.95 80.2955 158.268 80.983 157.399 81.4886C156.53 81.9886 155.541 82.2386 154.433 82.2386Z" fill="white"/>
</svg>
